<svg xmlns="http://www.w3.org/2000/svg" xmlns:xlink="http://www.w3.org/1999/xlink" width="500" zoomAndPan="magnify" viewBox="0 0 375 374.999991" height="500" preserveAspectRatio="xMidYMid meet" version="1.0"><defs><g/><clipPath id="2d98413bf8"><path d="M 8 54.824219 L 77 54.824219 L 77 266 L 8 266 Z M 8 54.824219 " clip-rule="nonzero"/></clipPath><clipPath id="0edfb0cbe3"><path d="M 262 54.824219 L 367 54.824219 L 367 266.324219 L 262 266.324219 Z M 262 54.824219 " clip-rule="nonzero"/></clipPath><clipPath id="6bd2ceeb67"><path d="M 0.558594 61 L 34 61 L 34 152 L 0.558594 152 Z M 0.558594 61 " clip-rule="nonzero"/></clipPath><clipPath id="73ee346358"><path d="M 36 0.824219 L 104.960938 0.824219 L 104.960938 212 L 36 212 Z M 36 0.824219 " clip-rule="nonzero"/></clipPath><clipPath id="ef1eb4c414"><rect x="0" width="105" y="0" height="213"/></clipPath><clipPath id="4ece432af2"><rect x="0" width="375" y="0" height="34"/></clipPath></defs><path fill="#ffffff" d="M 132.878906 205.386719 C 165.128906 222.121094 197.546875 223.925781 226.246094 194.976562 C 245.148438 175.910156 230.574219 160.867188 206.929688 171.273438 C 186.25 180.351562 127.242188 205.441406 120.222656 167.222656 C 116.917969 149.125 126.160156 129.144531 141.066406 118.566406 C 158.023438 106.550781 182.613281 102.609375 201.933594 104.828125 C 219.554688 106.882812 235.238281 113.988281 249.03125 125.785156 L 226.71875 103.46875 C 204.902344 81.679688 169.207031 81.679688 147.394531 103.46875 L 123.164062 127.699219 C 98.101562 152.789062 99.042969 187.816406 132.878906 205.386719 Z M 132.878906 205.386719 " fill-opacity="1" fill-rule="evenodd"/><path fill="#ffffff" d="M 243.066406 127.53125 C 210.8125 110.796875 178.394531 108.992188 149.695312 137.941406 C 130.796875 157.007812 145.394531 172.050781 169.015625 161.671875 C 189.691406 152.566406 248.699219 127.476562 255.722656 165.695312 C 259.050781 183.820312 249.78125 203.777344 234.878906 214.351562 C 217.917969 226.367188 193.328125 230.335938 174.039062 228.089844 C 156.386719 226.035156 140.730469 218.957031 126.910156 207.132812 L 149.226562 229.449219 C 171.039062 251.265625 206.734375 251.265625 228.550781 229.449219 L 252.777344 205.21875 C 277.84375 180.15625 276.898438 145.101562 243.066406 127.53125 Z M 243.066406 127.53125 " fill-opacity="1" fill-rule="evenodd"/><path fill="#ffffff" d="M 112.429688 115.257812 C 106.175781 122.203125 101.316406 129.152344 97.84375 136.792969 C 94.367188 144.433594 92.980469 152.074219 92.980469 160.410156 C 92.980469 168.050781 94.367188 176.386719 97.84375 184.027344 C 101.316406 191.667969 106.175781 198.617188 112.429688 205.5625 C 102.703125 203.476562 94.367188 197.226562 88.117188 189.585938 C 81.863281 181.25 78.390625 170.828125 79.085938 160.410156 C 79.085938 149.992188 82.558594 139.570312 88.117188 131.234375 C 94.367188 123.59375 102.703125 117.34375 112.429688 115.257812 Z M 112.429688 115.257812 " fill-opacity="1" fill-rule="nonzero"/><path fill="#ffffff" d="M 93.675781 235.433594 C 79.085938 230.570312 65.886719 219.453125 56.859375 206.257812 C 47.828125 193.058594 42.964844 176.386719 42.964844 159.714844 C 42.964844 143.042969 47.828125 127.066406 56.859375 113.175781 C 65.886719 99.976562 79.085938 88.863281 93.675781 84 C 81.863281 93.722656 72.835938 105.535156 66.582031 118.730469 C 60.332031 132.625 56.859375 146.515625 56.859375 160.410156 C 56.859375 174.304688 60.332031 188.195312 66.582031 201.394531 C 72.835938 213.898438 81.863281 225.707031 93.675781 235.433594 Z M 93.675781 235.433594 " fill-opacity="1" fill-rule="nonzero"/><g clip-path="url(#2d98413bf8)"><path fill="#ffffff" d="M 76.308594 265.996094 C 56.164062 257.660156 38.796875 243.074219 26.988281 224.316406 C 14.484375 205.5625 8.234375 182.640625 8.234375 160.410156 C 8.234375 138.183594 14.484375 115.257812 26.988281 96.503906 C 38.796875 77.746094 56.164062 62.464844 76.308594 54.824219 C 59.636719 68.023438 45.742188 84 36.019531 102.058594 C 26.988281 120.121094 21.429688 140.265625 22.125 160.410156 C 22.125 180.554688 26.988281 200.699219 36.019531 218.761719 C 45.742188 236.820312 59.636719 252.796875 76.308594 265.996094 Z M 76.308594 265.996094 " fill-opacity="1" fill-rule="nonzero"/></g><g clip-path="url(#0edfb0cbe3)"><g transform="matrix(1, 0, 0, 1, 262, 54)"><g clip-path="url(#ef1eb4c414)"><g clip-path="url(#6bd2ceeb67)"><path fill="#ffffff" d="M 0.566406 61.257812 C 6.820312 68.203125 11.679688 75.152344 15.152344 82.792969 C 18.628906 90.433594 20.015625 98.074219 20.015625 106.410156 C 20.015625 114.050781 18.628906 122.386719 15.152344 130.027344 C 11.679688 137.667969 6.820312 144.617188 0.566406 151.5625 C 10.292969 149.476562 18.628906 143.226562 24.878906 135.585938 C 31.132812 127.25 34.605469 116.828125 33.910156 106.410156 C 33.910156 95.992188 30.4375 85.570312 24.878906 77.234375 C 18.628906 69.59375 10.292969 63.34375 0.566406 61.257812 Z M 0.566406 61.257812 " fill-opacity="1" fill-rule="nonzero"/></g><path fill="#ffffff" d="M 19.320312 181.433594 C 33.910156 176.570312 47.109375 165.453125 56.136719 152.257812 C 65.167969 139.058594 70.03125 122.386719 70.03125 105.714844 C 70.03125 89.042969 65.167969 73.066406 56.136719 59.175781 C 47.109375 45.976562 33.910156 34.863281 19.320312 30 C 31.132812 39.722656 40.160156 51.535156 46.414062 64.730469 C 52.664062 78.625 56.136719 92.515625 56.136719 106.410156 C 56.136719 120.304688 52.664062 134.195312 46.414062 147.394531 C 40.160156 159.898438 31.132812 171.707031 19.320312 181.433594 Z M 19.320312 181.433594 " fill-opacity="1" fill-rule="nonzero"/><g clip-path="url(#73ee346358)"><path fill="#ffffff" d="M 36.6875 211.996094 C 56.832031 203.660156 74.199219 189.074219 86.007812 170.316406 C 98.511719 151.5625 104.761719 128.640625 104.761719 106.410156 C 104.761719 84.183594 98.511719 61.257812 86.007812 42.503906 C 74.199219 23.746094 56.832031 8.464844 36.6875 0.824219 C 53.359375 14.023438 67.253906 30 76.976562 48.058594 C 86.007812 66.121094 91.566406 86.265625 90.871094 106.410156 C 90.871094 126.554688 86.007812 146.699219 76.976562 164.761719 C 67.253906 182.820312 53.359375 198.796875 36.6875 211.996094 Z M 36.6875 211.996094 " fill-opacity="1" fill-rule="nonzero"/></g></g></g></g><g transform="matrix(1, 0, 0, 1, 0, 300)"><g clip-path="url(#4ece432af2)"><g fill="#ffffff" fill-opacity="1"><g transform="translate(-0.331478, 26.209765)"><g><path d="M 8.03125 0.3125 C 6.613281 0.3125 5.238281 0.117188 3.90625 -0.265625 C 2.582031 -0.648438 1.519531 -1.148438 0.71875 -1.765625 L 2.125 -4.90625 C 2.894531 -4.332031 3.8125 -3.875 4.875 -3.53125 C 5.9375 -3.195312 7 -3.03125 8.0625 -3.03125 C 9.238281 -3.03125 10.109375 -3.203125 10.671875 -3.546875 C 11.234375 -3.898438 11.515625 -4.367188 11.515625 -4.953125 C 11.515625 -5.378906 11.347656 -5.734375 11.015625 -6.015625 C 10.679688 -6.296875 10.253906 -6.519531 9.734375 -6.6875 C 9.210938 -6.863281 8.507812 -7.054688 7.625 -7.265625 C 6.25 -7.585938 5.125 -7.910156 4.25 -8.234375 C 3.382812 -8.554688 2.640625 -9.078125 2.015625 -9.796875 C 1.390625 -10.515625 1.078125 -11.472656 1.078125 -12.671875 C 1.078125 -13.710938 1.359375 -14.65625 1.921875 -15.5 C 2.484375 -16.351562 3.332031 -17.023438 4.46875 -17.515625 C 5.613281 -18.015625 7.003906 -18.265625 8.640625 -18.265625 C 9.785156 -18.265625 10.90625 -18.128906 12 -17.859375 C 13.101562 -17.585938 14.0625 -17.191406 14.875 -16.671875 L 13.59375 -13.515625 C 11.9375 -14.460938 10.28125 -14.9375 8.625 -14.9375 C 7.457031 -14.9375 6.59375 -14.742188 6.03125 -14.359375 C 5.476562 -13.984375 5.203125 -13.488281 5.203125 -12.875 C 5.203125 -12.257812 5.519531 -11.800781 6.15625 -11.5 C 6.800781 -11.207031 7.785156 -10.914062 9.109375 -10.625 C 10.472656 -10.300781 11.59375 -9.972656 12.46875 -9.640625 C 13.34375 -9.316406 14.09375 -8.804688 14.71875 -8.109375 C 15.34375 -7.410156 15.65625 -6.460938 15.65625 -5.265625 C 15.65625 -4.234375 15.367188 -3.296875 14.796875 -2.453125 C 14.222656 -1.609375 13.363281 -0.9375 12.21875 -0.4375 C 11.070312 0.0625 9.675781 0.3125 8.03125 0.3125 Z M 8.03125 0.3125 "/></g></g></g><g fill="#ffffff" fill-opacity="1"><g transform="translate(36.556534, 26.209765)"><g><path d="M 10.828125 0.3125 C 8.960938 0.3125 7.28125 -0.0859375 5.78125 -0.890625 C 4.289062 -1.703125 3.117188 -2.8125 2.265625 -4.21875 C 1.421875 -5.632812 1 -7.222656 1 -8.984375 C 1 -10.742188 1.421875 -12.328125 2.265625 -13.734375 C 3.117188 -15.148438 4.289062 -16.257812 5.78125 -17.0625 C 7.28125 -17.863281 8.960938 -18.265625 10.828125 -18.265625 C 12.691406 -18.265625 14.367188 -17.863281 15.859375 -17.0625 C 17.347656 -16.257812 18.519531 -15.148438 19.375 -13.734375 C 20.226562 -12.328125 20.65625 -10.742188 20.65625 -8.984375 C 20.65625 -7.222656 20.226562 -5.632812 19.375 -4.21875 C 18.519531 -2.8125 17.347656 -1.703125 15.859375 -0.890625 C 14.367188 -0.0859375 12.691406 0.3125 10.828125 0.3125 Z M 10.828125 -3.234375 C 11.890625 -3.234375 12.847656 -3.472656 13.703125 -3.953125 C 14.554688 -4.441406 15.226562 -5.125 15.71875 -6 C 16.207031 -6.875 16.453125 -7.867188 16.453125 -8.984375 C 16.453125 -10.085938 16.207031 -11.078125 15.71875 -11.953125 C 15.226562 -12.828125 14.554688 -13.507812 13.703125 -14 C 12.847656 -14.488281 11.890625 -14.734375 10.828125 -14.734375 C 9.765625 -14.734375 8.804688 -14.488281 7.953125 -14 C 7.097656 -13.507812 6.425781 -12.828125 5.9375 -11.953125 C 5.445312 -11.078125 5.203125 -10.085938 5.203125 -8.984375 C 5.203125 -7.867188 5.445312 -6.875 5.9375 -6 C 6.425781 -5.125 7.097656 -4.441406 7.953125 -3.953125 C 8.804688 -3.472656 9.765625 -3.234375 10.828125 -3.234375 Z M 10.828125 -3.234375 "/></g></g></g><g fill="#ffffff" fill-opacity="1"><g transform="translate(78.728258, 26.209765)"><g><path d="M 10.109375 0.3125 C 7.546875 0.3125 5.546875 -0.394531 4.109375 -1.8125 C 2.679688 -3.238281 1.96875 -5.269531 1.96875 -7.90625 L 1.96875 -17.953125 L 6.125 -17.953125 L 6.125 -8.0625 C 6.125 -4.84375 7.460938 -3.234375 10.140625 -3.234375 C 11.429688 -3.234375 12.421875 -3.617188 13.109375 -4.390625 C 13.796875 -5.171875 14.140625 -6.394531 14.140625 -8.0625 L 14.140625 -17.953125 L 18.234375 -17.953125 L 18.234375 -7.90625 C 18.234375 -5.269531 17.519531 -3.238281 16.09375 -1.8125 C 14.664062 -0.394531 12.671875 0.3125 10.109375 0.3125 Z M 10.109375 0.3125 "/></g></g></g><g fill="#ffffff" fill-opacity="1"><g transform="translate(119.463637, 26.209765)"><g><path d="M 18.59375 -17.953125 L 18.59375 0 L 15.1875 0 L 6.234375 -10.90625 L 6.234375 0 L 2.125 0 L 2.125 -17.953125 L 5.5625 -17.953125 L 14.5 -7.0625 L 14.5 -17.953125 Z M 18.59375 -17.953125 "/></g></g></g><g fill="#ffffff" fill-opacity="1"><g transform="translate(160.711983, 26.209765)"><g><path d="M 2.125 -17.953125 L 10.28125 -17.953125 C 12.238281 -17.953125 13.960938 -17.582031 15.453125 -16.84375 C 16.953125 -16.101562 18.113281 -15.054688 18.9375 -13.703125 C 19.769531 -12.347656 20.1875 -10.773438 20.1875 -8.984375 C 20.1875 -7.179688 19.769531 -5.601562 18.9375 -4.25 C 18.113281 -2.90625 16.953125 -1.859375 15.453125 -1.109375 C 13.960938 -0.367188 12.238281 0 10.28125 0 L 2.125 0 Z M 10.078125 -3.40625 C 11.878906 -3.40625 13.3125 -3.90625 14.375 -4.90625 C 15.445312 -5.90625 15.984375 -7.265625 15.984375 -8.984375 C 15.984375 -10.691406 15.445312 -12.046875 14.375 -13.046875 C 13.3125 -14.046875 11.878906 -14.546875 10.078125 -14.546875 L 6.28125 -14.546875 L 6.28125 -3.40625 Z M 10.078125 -3.40625 "/></g></g></g><g fill="#ffffff" fill-opacity="1"><g transform="translate(202.422018, 26.209765)"><g><path d="M 8.03125 0.3125 C 6.613281 0.3125 5.238281 0.117188 3.90625 -0.265625 C 2.582031 -0.648438 1.519531 -1.148438 0.71875 -1.765625 L 2.125 -4.90625 C 2.894531 -4.332031 3.8125 -3.875 4.875 -3.53125 C 5.9375 -3.195312 7 -3.03125 8.0625 -3.03125 C 9.238281 -3.03125 10.109375 -3.203125 10.671875 -3.546875 C 11.234375 -3.898438 11.515625 -4.367188 11.515625 -4.953125 C 11.515625 -5.378906 11.347656 -5.734375 11.015625 -6.015625 C 10.679688 -6.296875 10.253906 -6.519531 9.734375 -6.6875 C 9.210938 -6.863281 8.507812 -7.054688 7.625 -7.265625 C 6.25 -7.585938 5.125 -7.910156 4.25 -8.234375 C 3.382812 -8.554688 2.640625 -9.078125 2.015625 -9.796875 C 1.390625 -10.515625 1.078125 -11.472656 1.078125 -12.671875 C 1.078125 -13.710938 1.359375 -14.65625 1.921875 -15.5 C 2.484375 -16.351562 3.332031 -17.023438 4.46875 -17.515625 C 5.613281 -18.015625 7.003906 -18.265625 8.640625 -18.265625 C 9.785156 -18.265625 10.90625 -18.128906 12 -17.859375 C 13.101562 -17.585938 14.0625 -17.191406 14.875 -16.671875 L 13.59375 -13.515625 C 11.9375 -14.460938 10.28125 -14.9375 8.625 -14.9375 C 7.457031 -14.9375 6.59375 -14.742188 6.03125 -14.359375 C 5.476562 -13.984375 5.203125 -13.488281 5.203125 -12.875 C 5.203125 -12.257812 5.519531 -11.800781 6.15625 -11.5 C 6.800781 -11.207031 7.785156 -10.914062 9.109375 -10.625 C 10.472656 -10.300781 11.59375 -9.972656 12.46875 -9.640625 C 13.34375 -9.316406 14.09375 -8.804688 14.71875 -8.109375 C 15.34375 -7.410156 15.65625 -6.460938 15.65625 -5.265625 C 15.65625 -4.234375 15.367188 -3.296875 14.796875 -2.453125 C 14.222656 -1.609375 13.363281 -0.9375 12.21875 -0.4375 C 11.070312 0.0625 9.675781 0.3125 8.03125 0.3125 Z M 8.03125 0.3125 "/></g></g></g><g fill="#ffffff" fill-opacity="1"><g transform="translate(239.31003, 26.209765)"><g><path d="M 10.71875 0.3125 C 8.894531 0.3125 7.242188 -0.0820312 5.765625 -0.875 C 4.285156 -1.675781 3.117188 -2.78125 2.265625 -4.1875 C 1.421875 -5.601562 1 -7.203125 1 -8.984375 C 1 -10.753906 1.421875 -12.34375 2.265625 -13.75 C 3.117188 -15.164062 4.285156 -16.269531 5.765625 -17.0625 C 7.242188 -17.863281 8.90625 -18.265625 10.75 -18.265625 C 12.300781 -18.265625 13.707031 -17.988281 14.96875 -17.4375 C 16.226562 -16.894531 17.285156 -16.109375 18.140625 -15.078125 L 15.46875 -12.625 C 14.257812 -14.03125 12.753906 -14.734375 10.953125 -14.734375 C 9.835938 -14.734375 8.84375 -14.488281 7.96875 -14 C 7.101562 -13.507812 6.425781 -12.828125 5.9375 -11.953125 C 5.445312 -11.078125 5.203125 -10.085938 5.203125 -8.984375 C 5.203125 -7.867188 5.445312 -6.875 5.9375 -6 C 6.425781 -5.125 7.101562 -4.441406 7.96875 -3.953125 C 8.84375 -3.472656 9.835938 -3.234375 10.953125 -3.234375 C 12.753906 -3.234375 14.257812 -3.941406 15.46875 -5.359375 L 18.140625 -2.90625 C 17.285156 -1.851562 16.222656 -1.050781 14.953125 -0.5 C 13.691406 0.0390625 12.28125 0.3125 10.71875 0.3125 Z M 10.71875 0.3125 "/></g></g></g><g fill="#ffffff" fill-opacity="1"><g transform="translate(278.634714, 26.209765)"><g><path d="M 13.953125 -3.84375 L 5.625 -3.84375 L 4.03125 0 L -0.234375 0 L 7.78125 -17.953125 L 11.875 -17.953125 L 19.90625 0 L 15.546875 0 Z M 12.65625 -7 L 9.796875 -13.875 L 6.953125 -7 Z M 12.65625 -7 "/></g></g></g><g fill="#ffffff" fill-opacity="1"><g transform="translate(318.805807, 26.209765)"><g><path d="M 9.90625 -17.953125 C 11.5 -17.953125 12.878906 -17.6875 14.046875 -17.15625 C 15.210938 -16.632812 16.113281 -15.882812 16.75 -14.90625 C 17.382812 -13.925781 17.703125 -12.769531 17.703125 -11.4375 C 17.703125 -10.125 17.382812 -8.972656 16.75 -7.984375 C 16.113281 -7.003906 15.210938 -6.253906 14.046875 -5.734375 C 12.878906 -5.210938 11.5 -4.953125 9.90625 -4.953125 L 6.28125 -4.953125 L 6.28125 0 L 2.125 0 L 2.125 -17.953125 Z M 9.671875 -8.34375 C 10.921875 -8.34375 11.867188 -8.609375 12.515625 -9.140625 C 13.171875 -9.679688 13.5 -10.445312 13.5 -11.4375 C 13.5 -12.445312 13.171875 -13.222656 12.515625 -13.765625 C 11.867188 -14.304688 10.921875 -14.578125 9.671875 -14.578125 L 6.28125 -14.578125 L 6.28125 -8.34375 Z M 9.671875 -8.34375 "/></g></g></g><g fill="#ffffff" fill-opacity="1"><g transform="translate(358.104841, 26.209765)"><g><path d="M 16.03125 -3.328125 L 16.03125 0 L 2.125 0 L 2.125 -17.953125 L 15.703125 -17.953125 L 15.703125 -14.625 L 6.265625 -14.625 L 6.265625 -10.71875 L 14.59375 -10.71875 L 14.59375 -7.484375 L 6.265625 -7.484375 L 6.265625 -3.328125 Z M 16.03125 -3.328125 "/></g></g></g></g></g></svg>